M48
; DRILL file {KiCad 9.0.7} date 2026-03-14T20:44:48+0100
; FORMAT={-:-/ absolute / metric / decimal}
; #@! TF.CreationDate,2026-03-14T20:44:48+01:00
; #@! TF.GenerationSoftware,Kicad,Pcbnew,9.0.7
; #@! TF.FileFunction,Plated,1,2,PTH
FMAT,2
METRIC
; #@! TA.AperFunction,Plated,PTH,ViaDrill
T1C0.300
; #@! TA.AperFunction,Plated,PTH,ComponentDrill
T2C0.500
; #@! TA.AperFunction,Plated,PTH,ComponentDrill
T3C1.000
; #@! TA.AperFunction,Plated,PTH,ComponentDrill
T4C1.500
%
G90
G05
T1
X14.226Y-341.276
X17.876Y-323.976
X18.226Y-302.676
X117.146Y-241.126
X136.326Y-241.276
X307.026Y-284.826
T2
X138.726Y-228.276
X139.726Y-228.276
X140.726Y-228.276
X141.726Y-228.276
X142.726Y-228.276
X143.726Y-228.276
X144.726Y-228.276
X145.726Y-228.276
X146.726Y-228.276
X147.726Y-228.276
X148.726Y-228.276
X149.726Y-228.276
X150.726Y-228.276
X151.726Y-228.276
X152.726Y-228.276
X153.726Y-228.276
X154.726Y-228.276
X155.726Y-228.276
X156.726Y-228.276
X157.726Y-228.276
X158.726Y-228.276
X159.726Y-228.276
X160.726Y-228.276
X161.726Y-228.276
X162.726Y-228.276
T3
X286.676Y-234.176
X286.676Y-239.176
X301.176Y-234.176
X301.176Y-236.676
X301.176Y-239.176
T4
X1.876Y-253.516
X1.886Y-234.286
X4.136Y-330.736
X6.626Y-272.766
X8.226Y-250.976
X8.236Y-231.746
X8.976Y-292.026
X10.486Y-328.196
X12.976Y-270.226
X13.716Y-311.436
X15.326Y-289.486
X20.066Y-308.896
X21.071Y-253.524
X21.086Y-234.286
X27.421Y-250.984
X27.436Y-231.746
X28.276Y-330.776
X30.626Y-272.776
X34.626Y-328.236
X35.686Y-292.056
X36.976Y-270.236
X40.316Y-234.286
X40.316Y-253.536
X42.036Y-289.516
X44.816Y-311.446
X46.666Y-231.746
X46.666Y-250.996
X49.846Y-272.776
X51.166Y-308.906
X52.416Y-330.786
X55.466Y-291.986
X56.196Y-270.236
X58.766Y-328.246
X59.516Y-253.536
X59.546Y-234.286
X61.816Y-289.446
X64.036Y-311.446
X65.866Y-250.996
X65.896Y-231.746
X69.096Y-272.776
X70.386Y-308.906
X75.016Y-292.046
X75.446Y-270.236
X78.746Y-234.336
X78.746Y-253.526
X81.366Y-289.506
X83.236Y-311.456
X85.096Y-231.796
X85.096Y-250.986
X88.296Y-272.776
X89.586Y-308.916
X94.586Y-292.116
X94.646Y-270.236
X97.926Y-253.526
X97.946Y-234.286
X100.936Y-289.576
X102.446Y-311.456
X104.276Y-250.986
X104.296Y-231.746
X107.496Y-272.786
X108.796Y-308.916
X113.846Y-270.246
X114.346Y-292.126
X117.126Y-253.536
X117.146Y-234.286
X120.696Y-289.586
X121.666Y-311.466
X123.476Y-250.996
X123.496Y-231.746
X124.146Y-330.811
X126.706Y-272.796
X128.016Y-308.926
X130.496Y-328.271
X133.056Y-270.256
X133.876Y-292.086
X136.326Y-234.326
X136.326Y-253.576
X140.226Y-289.546
X140.906Y-311.476
X142.676Y-231.786
X142.676Y-251.036
X145.796Y-272.796
X147.256Y-308.936
X152.146Y-270.256
X153.456Y-292.056
X155.526Y-234.326
X155.526Y-253.576
X159.806Y-289.516
X160.176Y-311.496
X161.876Y-231.786
X161.876Y-251.036
X164.976Y-272.816
X166.526Y-308.956
X171.326Y-270.276
X172.986Y-292.086
X174.726Y-253.576
X174.746Y-234.286
X179.336Y-289.546
X179.426Y-311.526
X181.076Y-251.036
X181.096Y-231.746
X184.176Y-272.816
X185.776Y-308.986
X190.526Y-270.276
X192.476Y-292.066
X193.516Y-330.811
X193.926Y-253.576
X193.946Y-234.336
X198.626Y-311.526
X198.826Y-289.526
X199.866Y-328.271
X200.276Y-251.036
X200.296Y-231.796
X203.376Y-272.806
X204.976Y-308.986
X209.726Y-270.266
X211.996Y-292.066
X212.841Y-330.811
X213.126Y-253.576
X213.146Y-234.286
X217.886Y-311.526
X218.346Y-289.526
X219.191Y-328.271
X219.476Y-251.036
X219.496Y-231.746
X222.546Y-272.816
X224.236Y-308.986
X228.896Y-270.276
X231.796Y-292.066
X232.136Y-330.786
X232.326Y-253.576
X232.346Y-234.336
X238.146Y-289.526
X238.486Y-328.246
X238.676Y-251.036
X238.696Y-231.796
X241.806Y-272.826
X244.306Y-311.526
X248.156Y-270.286
X250.656Y-308.986
X251.456Y-330.796
X251.546Y-234.376
X257.806Y-328.256
X257.896Y-231.836
X260.876Y-292.116
X261.076Y-253.576
X265.866Y-272.856
X267.226Y-289.576
X267.426Y-251.036
X270.726Y-311.546
X270.731Y-330.751
X270.746Y-234.386
X272.216Y-270.316
X277.076Y-309.006
X277.081Y-328.211
X277.096Y-231.846
X289.886Y-253.576
X289.896Y-272.876
X289.901Y-292.151
X289.911Y-311.551
X289.911Y-330.751
X296.236Y-251.036
X296.246Y-270.336
X296.251Y-289.611
X296.261Y-309.011
X296.261Y-328.211
T4
G00X294.326Y-231.076
M15
G01X293.026Y-231.076
M16
G05
G00X294.326Y-242.276
M15
G01X293.026Y-242.276
M16
G05
M30
