M48
; DRILL file {KiCad 9.0.7} date 2026-03-14T20:44:48+0100
; FORMAT={-:-/ absolute / metric / decimal}
; #@! TF.CreationDate,2026-03-14T20:44:48+01:00
; #@! TF.GenerationSoftware,Kicad,Pcbnew,9.0.7
; #@! TF.FileFunction,NonPlated,1,2,NPTH
FMAT,2
METRIC
; #@! TA.AperFunction,NonPlated,NPTH,ComponentDrill
T1C1.600
; #@! TA.AperFunction,NonPlated,NPTH,ComponentDrill
T2C1.750
; #@! TA.AperFunction,NonPlated,NPTH,ComponentDrill
T3C2.100
; #@! TA.AperFunction,NonPlated,NPTH,ComponentDrill
T4C3.048
; #@! TA.AperFunction,NonPlated,NPTH,ComponentDrill
T5C3.988
; #@! TA.AperFunction,NonPlated,NPTH,ComponentDrill
T6C4.000
%
G90
G05
T2
X0.606Y-256.056
X0.616Y-236.826
X2.866Y-333.276
X5.356Y-275.306
X7.706Y-294.566
X10.766Y-256.056
X10.776Y-236.826
X12.446Y-313.976
X13.026Y-333.276
X15.516Y-275.306
X17.866Y-294.566
X19.801Y-256.064
X19.816Y-236.826
X22.606Y-313.976
X27.006Y-333.316
X29.356Y-275.316
X29.961Y-256.064
X29.976Y-236.826
X34.416Y-294.596
X37.166Y-333.316
X39.046Y-236.826
X39.046Y-256.076
X39.516Y-275.316
X43.546Y-313.986
X44.576Y-294.596
X48.576Y-275.316
X49.206Y-236.826
X49.206Y-256.076
X51.146Y-333.326
X53.706Y-313.986
X54.196Y-294.526
X58.246Y-256.076
X58.276Y-236.826
X58.736Y-275.316
X61.306Y-333.326
X62.766Y-313.986
X64.356Y-294.526
X67.826Y-275.316
X68.406Y-256.076
X68.436Y-236.826
X72.926Y-313.986
X73.746Y-294.586
X77.476Y-236.876
X77.476Y-256.066
X77.986Y-275.316
X81.966Y-313.996
X83.906Y-294.586
X87.026Y-275.316
X87.636Y-236.876
X87.636Y-256.066
X92.126Y-313.996
X93.316Y-294.656
X96.656Y-256.066
X96.676Y-236.826
X97.186Y-275.316
X101.176Y-313.996
X103.476Y-294.656
X106.226Y-275.326
X106.816Y-256.066
X106.836Y-236.826
X111.336Y-313.996
X113.076Y-294.666
X115.856Y-256.076
X115.876Y-236.826
X116.386Y-275.326
X120.396Y-314.006
X122.876Y-333.351
X123.236Y-294.666
X125.436Y-275.336
X126.016Y-256.076
X126.036Y-236.826
X130.556Y-314.006
X132.606Y-294.626
X133.036Y-333.351
X135.056Y-236.866
X135.056Y-256.116
X135.596Y-275.336
X139.636Y-314.016
X142.766Y-294.626
X144.526Y-275.336
X145.216Y-236.866
X145.216Y-256.116
X149.796Y-314.016
X152.186Y-294.596
X154.256Y-236.866
X154.256Y-256.116
X154.686Y-275.336
X158.906Y-314.036
X162.346Y-294.596
X163.706Y-275.356
X164.416Y-236.866
X164.416Y-256.116
X169.066Y-314.036
X171.716Y-294.626
X173.456Y-256.116
X173.476Y-236.826
X173.866Y-275.356
X178.156Y-314.066
X181.876Y-294.626
X182.906Y-275.356
X183.616Y-256.116
X183.636Y-236.826
X188.316Y-314.066
X191.206Y-294.606
X192.246Y-333.351
X192.656Y-256.116
X192.676Y-236.876
X193.066Y-275.356
X197.356Y-314.066
X201.366Y-294.606
X202.106Y-275.346
X202.406Y-333.351
X202.816Y-256.116
X202.836Y-236.876
X207.516Y-314.066
X210.726Y-294.606
X211.571Y-333.351
X211.856Y-256.116
X211.876Y-236.826
X212.266Y-275.346
X216.616Y-314.066
X220.886Y-294.606
X221.276Y-275.356
X221.731Y-333.351
X222.016Y-256.116
X222.036Y-236.826
X226.776Y-314.066
X230.526Y-294.606
X230.866Y-333.326
X231.056Y-256.116
X231.076Y-236.876
X231.436Y-275.356
X240.536Y-275.366
X240.686Y-294.606
X241.026Y-333.326
X241.216Y-256.116
X241.236Y-236.876
X243.036Y-314.066
X250.186Y-333.336
X250.276Y-236.916
X250.696Y-275.366
X253.196Y-314.066
X259.606Y-294.656
X259.806Y-256.116
X260.346Y-333.336
X260.436Y-236.916
X264.596Y-275.396
X269.456Y-314.086
X269.461Y-333.291
X269.476Y-236.926
X269.766Y-294.656
X269.966Y-256.116
X274.756Y-275.396
X279.616Y-314.086
X279.621Y-333.291
X279.636Y-236.926
X288.616Y-256.116
X288.626Y-275.416
X288.631Y-294.691
X288.641Y-314.091
X288.641Y-333.291
X298.776Y-256.116
X298.786Y-275.416
X298.791Y-294.691
X298.801Y-314.091
X298.801Y-333.291
T3
X293.676Y-236.676
T4
X5.426Y-306.376
X29.302Y-306.376
X78.126Y-325.626
X178.126Y-325.626
X252.75Y-287.026
X252.95Y-248.476
X276.626Y-287.026
X276.826Y-248.476
T5
X5.426Y-321.586
X29.302Y-321.586
X78.126Y-340.836
X178.126Y-340.836
X252.75Y-302.236
X252.95Y-263.686
X276.626Y-302.236
X276.826Y-263.686
T6
X5.686Y-256.056
X5.696Y-236.826
X7.946Y-333.276
X10.436Y-275.306
X12.786Y-294.566
X17.526Y-313.976
X24.881Y-256.064
X24.896Y-236.826
X32.086Y-333.316
X34.436Y-275.316
X39.496Y-294.596
X44.126Y-236.826
X44.126Y-256.076
X48.626Y-313.986
X53.656Y-275.316
X56.226Y-333.326
X59.276Y-294.526
X63.326Y-256.076
X63.356Y-236.826
X67.846Y-313.986
X72.906Y-275.316
X78.826Y-294.586
X82.556Y-236.876
X82.556Y-256.066
X87.046Y-313.996
X92.106Y-275.316
X98.396Y-294.656
X101.736Y-256.066
X101.756Y-236.826
X106.256Y-313.996
X111.306Y-275.326
X118.156Y-294.666
X120.936Y-256.076
X120.956Y-236.826
X125.476Y-314.006
X127.956Y-333.351
X130.516Y-275.336
X137.686Y-294.626
X140.136Y-236.866
X140.136Y-256.116
X144.716Y-314.016
X149.606Y-275.336
X157.266Y-294.596
X159.336Y-236.866
X159.336Y-256.116
X163.986Y-314.036
X168.786Y-275.356
X176.796Y-294.626
X178.536Y-256.116
X178.556Y-236.826
X183.236Y-314.066
X187.986Y-275.356
X196.286Y-294.606
X197.326Y-333.351
X197.736Y-256.116
X197.756Y-236.876
X202.436Y-314.066
X207.186Y-275.346
X215.806Y-294.606
X216.651Y-333.351
X216.936Y-256.116
X216.956Y-236.826
X221.696Y-314.066
X226.356Y-275.356
X235.606Y-294.606
X235.946Y-333.326
X236.136Y-256.116
X236.156Y-236.876
X245.616Y-275.366
X248.116Y-314.066
X255.266Y-333.336
X255.356Y-236.916
X264.686Y-294.656
X264.886Y-256.116
X269.676Y-275.396
X274.536Y-314.086
X274.541Y-333.291
X274.556Y-236.926
X293.696Y-256.116
X293.706Y-275.416
X293.711Y-294.691
X293.721Y-314.091
X293.721Y-333.291
T1
G00X298.476Y-236.676
M15
G01X297.876Y-236.676
M16
G05
M30
