%TF.GenerationSoftware,KiCad,Pcbnew,9.0.7*%
%TF.CreationDate,2026-03-14T20:44:34+01:00*%
%TF.ProjectId,keyboard,6b657962-6f61-4726-942e-6b696361645f,rev?*%
%TF.SameCoordinates,Original*%
%TF.FileFunction,Soldermask,Bot*%
%TF.FilePolarity,Negative*%
%FSLAX46Y46*%
G04 Gerber Fmt 4.6, Leading zero omitted, Abs format (unit mm)*
G04 Created by KiCad (PCBNEW 9.0.7) date 2026-03-14 20:44:34*
%MOMM*%
%LPD*%
G01*
G04 APERTURE LIST*
%ADD10C,1.750000*%
%ADD11C,4.000000*%
%ADD12C,2.500000*%
%ADD13C,3.048000*%
%ADD14C,3.987800*%
%ADD15O,2.200000X1.600000*%
%ADD16C,2.100000*%
%ADD17R,2.000000X2.000000*%
%ADD18C,2.000000*%
%ADD19R,3.200000X2.000000*%
%ADD20R,0.850000X0.850000*%
%ADD21C,0.850000*%
G04 APERTURE END LIST*
D10*
%TO.C,SW58*%
X139636000Y-314016000D03*
D11*
X144716000Y-314016000D03*
D10*
X149796000Y-314016000D03*
D12*
X140906000Y-311476000D03*
X147256000Y-308936000D03*
%TD*%
D10*
%TO.C,SW62*%
X62766000Y-313986000D03*
D11*
X67846000Y-313986000D03*
D10*
X72926000Y-313986000D03*
D12*
X64036000Y-311446000D03*
X70386000Y-308906000D03*
%TD*%
D10*
%TO.C,SW35*%
X125436000Y-275336000D03*
D11*
X130516000Y-275336000D03*
D10*
X135596000Y-275336000D03*
D12*
X126706000Y-272796000D03*
X133056000Y-270256000D03*
%TD*%
D10*
%TO.C,SW31*%
X202106000Y-275346000D03*
D11*
X207186000Y-275346000D03*
D10*
X212266000Y-275346000D03*
D12*
X203376000Y-272806000D03*
X209726000Y-270266000D03*
%TD*%
D10*
%TO.C,SW63*%
X43546000Y-313986000D03*
D11*
X48626000Y-313986000D03*
D10*
X53706000Y-313986000D03*
D12*
X44816000Y-311446000D03*
X51166000Y-308906000D03*
%TD*%
D10*
%TO.C,SW25*%
X211571000Y-333351000D03*
D11*
X216651000Y-333351000D03*
D10*
X221731000Y-333351000D03*
D12*
X212841000Y-330811000D03*
X219191000Y-328271000D03*
%TD*%
D10*
%TO.C,SW46*%
X93316000Y-294656000D03*
D11*
X98396000Y-294656000D03*
D10*
X103476000Y-294656000D03*
D12*
X94586000Y-292116000D03*
X100936000Y-289576000D03*
%TD*%
D10*
%TO.C,SW32*%
X182906000Y-275356000D03*
D11*
X187986000Y-275356000D03*
D10*
X193066000Y-275356000D03*
D12*
X184176000Y-272816000D03*
X190526000Y-270276000D03*
%TD*%
D10*
%TO.C,shift-r1*%
X12446000Y-313976000D03*
D11*
X17526000Y-313976000D03*
D10*
X22606000Y-313976000D03*
D12*
X13716000Y-311436000D03*
X20066000Y-308896000D03*
%TD*%
D10*
%TO.C,SW30*%
X221276000Y-275356000D03*
D11*
X226356000Y-275356000D03*
D10*
X231436000Y-275356000D03*
D12*
X222546000Y-272816000D03*
X228896000Y-270276000D03*
%TD*%
D10*
%TO.C,SW13*%
X231056000Y-256116000D03*
D11*
X236136000Y-256116000D03*
D10*
X241216000Y-256116000D03*
D12*
X232326000Y-253576000D03*
X238676000Y-251036000D03*
%TD*%
D10*
%TO.C,SW56*%
X178156000Y-314066000D03*
D11*
X183236000Y-314066000D03*
D10*
X188316000Y-314066000D03*
D12*
X179426000Y-311526000D03*
X185776000Y-308986000D03*
%TD*%
D13*
%TO.C,space-stabilizer1*%
X78126000Y-325626000D03*
D14*
X78126000Y-340836000D03*
D13*
X178126000Y-325626000D03*
D14*
X178126000Y-340836000D03*
%TD*%
D10*
%TO.C,SW52*%
X210726000Y-294606000D03*
D11*
X215806000Y-294606000D03*
D10*
X220886000Y-294606000D03*
D12*
X211996000Y-292066000D03*
X218346000Y-289526000D03*
%TD*%
D10*
%TO.C,cntrl1*%
X2866000Y-333276000D03*
D11*
X7946000Y-333276000D03*
D10*
X13026000Y-333276000D03*
D12*
X4136000Y-330736000D03*
X10486000Y-328196000D03*
%TD*%
D10*
%TO.C,SW12*%
X211856000Y-256116000D03*
D11*
X216936000Y-256116000D03*
D10*
X222016000Y-256116000D03*
D12*
X213126000Y-253576000D03*
X219476000Y-251036000D03*
%TD*%
D10*
%TO.C,windows1*%
X27006000Y-333316000D03*
D11*
X32086000Y-333316000D03*
D10*
X37166000Y-333316000D03*
D12*
X28276000Y-330776000D03*
X34626000Y-328236000D03*
%TD*%
D10*
%TO.C,SW23*%
X230866000Y-333326000D03*
D11*
X235946000Y-333326000D03*
D10*
X241026000Y-333326000D03*
D12*
X232136000Y-330786000D03*
X238486000Y-328246000D03*
%TD*%
D10*
%TO.C,SW40*%
X29356000Y-275316000D03*
D11*
X34436000Y-275316000D03*
D10*
X39516000Y-275316000D03*
D12*
X30626000Y-272776000D03*
X36976000Y-270236000D03*
%TD*%
D10*
%TO.C,SW75*%
X96676000Y-236826000D03*
D11*
X101756000Y-236826000D03*
D10*
X106836000Y-236826000D03*
D12*
X97946000Y-234286000D03*
X104296000Y-231746000D03*
%TD*%
D10*
%TO.C,SW48*%
X132606000Y-294626000D03*
D11*
X137686000Y-294626000D03*
D10*
X142766000Y-294626000D03*
D12*
X133876000Y-292086000D03*
X140226000Y-289546000D03*
%TD*%
D10*
%TO.C,SW39*%
X48576000Y-275316000D03*
D11*
X53656000Y-275316000D03*
D10*
X58736000Y-275316000D03*
D12*
X49846000Y-272776000D03*
X56196000Y-270236000D03*
%TD*%
D10*
%TO.C,alt1*%
X51146000Y-333326000D03*
D11*
X56226000Y-333326000D03*
D10*
X61306000Y-333326000D03*
D12*
X52416000Y-330786000D03*
X58766000Y-328246000D03*
%TD*%
D10*
%TO.C,SW59*%
X120396000Y-314006000D03*
D11*
X125476000Y-314006000D03*
D10*
X130556000Y-314006000D03*
D12*
X121666000Y-311466000D03*
X128016000Y-308926000D03*
%TD*%
D10*
%TO.C,SW19*%
X288641000Y-333291000D03*
D11*
X293721000Y-333291000D03*
D10*
X298801000Y-333291000D03*
D12*
X289911000Y-330751000D03*
X296261000Y-328211000D03*
%TD*%
D10*
%TO.C,SW55*%
X197356000Y-314066000D03*
D11*
X202436000Y-314066000D03*
D10*
X207516000Y-314066000D03*
D12*
X198626000Y-311526000D03*
X204976000Y-308986000D03*
%TD*%
D10*
%TO.C,SW15*%
X288616000Y-256116000D03*
D11*
X293696000Y-256116000D03*
D10*
X298776000Y-256116000D03*
D12*
X289886000Y-253576000D03*
X296236000Y-251036000D03*
%TD*%
D10*
%TO.C,SW77*%
X135056000Y-236866000D03*
D11*
X140136000Y-236866000D03*
D10*
X145216000Y-236866000D03*
D12*
X136326000Y-234326000D03*
X142676000Y-231786000D03*
%TD*%
D10*
%TO.C,SW70*%
X19816000Y-236826000D03*
D11*
X24896000Y-236826000D03*
D10*
X29976000Y-236826000D03*
D12*
X21086000Y-234286000D03*
X27436000Y-231746000D03*
%TD*%
D10*
%TO.C,SW72*%
X58276000Y-236826000D03*
D11*
X63356000Y-236826000D03*
D10*
X68436000Y-236826000D03*
D12*
X59546000Y-234286000D03*
X65896000Y-231746000D03*
%TD*%
D15*
%TO.C,Spin-thing1*%
X298176000Y-236676000D03*
D16*
X293676000Y-236676000D03*
D17*
X301176000Y-239176000D03*
D18*
X301176000Y-234176000D03*
X301176000Y-236676000D03*
D19*
X293676000Y-242276000D03*
X293676000Y-231076000D03*
D18*
X286676000Y-234176000D03*
X286676000Y-239176000D03*
%TD*%
D10*
%TO.C,SW34*%
X144526000Y-275336000D03*
D11*
X149606000Y-275336000D03*
D10*
X154686000Y-275336000D03*
D12*
X145796000Y-272796000D03*
X152146000Y-270256000D03*
%TD*%
D10*
%TO.C,SW78*%
X154256000Y-236866000D03*
D11*
X159336000Y-236866000D03*
D10*
X164416000Y-236866000D03*
D12*
X155526000Y-234326000D03*
X161876000Y-231786000D03*
%TD*%
D10*
%TO.C,SW5*%
X77476000Y-256066000D03*
D11*
X82556000Y-256066000D03*
D10*
X87636000Y-256066000D03*
D12*
X78746000Y-253526000D03*
X85096000Y-250986000D03*
%TD*%
D10*
%TO.C,SW81*%
X211876000Y-236826000D03*
D11*
X216956000Y-236826000D03*
D10*
X222036000Y-236826000D03*
D12*
X213146000Y-234286000D03*
X219496000Y-231746000D03*
%TD*%
D10*
%TO.C,SW47*%
X113076000Y-294666000D03*
D11*
X118156000Y-294666000D03*
D10*
X123236000Y-294666000D03*
D12*
X114346000Y-292126000D03*
X120696000Y-289586000D03*
%TD*%
D10*
%TO.C,enter1*%
X259606000Y-294656000D03*
D11*
X264686000Y-294656000D03*
D10*
X269766000Y-294656000D03*
D12*
X260876000Y-292116000D03*
X267226000Y-289576000D03*
%TD*%
D10*
%TO.C,SW43*%
X34416000Y-294596000D03*
D11*
X39496000Y-294596000D03*
D10*
X44576000Y-294596000D03*
D12*
X35686000Y-292056000D03*
X42036000Y-289516000D03*
%TD*%
D20*
%TO.C,J2*%
X162726000Y-228276000D03*
D21*
X161726000Y-228276000D03*
X160726000Y-228276000D03*
X159726000Y-228276000D03*
X158726000Y-228276000D03*
X157726000Y-228276000D03*
X156726000Y-228276000D03*
X155726000Y-228276000D03*
X154726000Y-228276000D03*
X153726000Y-228276000D03*
X152726000Y-228276000D03*
X151726000Y-228276000D03*
X150726000Y-228276000D03*
X149726000Y-228276000D03*
X148726000Y-228276000D03*
X147726000Y-228276000D03*
X146726000Y-228276000D03*
X145726000Y-228276000D03*
X144726000Y-228276000D03*
X143726000Y-228276000D03*
X142726000Y-228276000D03*
X141726000Y-228276000D03*
X140726000Y-228276000D03*
X139726000Y-228276000D03*
X138726000Y-228276000D03*
%TD*%
D10*
%TO.C,SW61*%
X81966000Y-313996000D03*
D11*
X87046000Y-313996000D03*
D10*
X92126000Y-313996000D03*
D12*
X83236000Y-311456000D03*
X89586000Y-308916000D03*
%TD*%
D10*
%TO.C,Backspace1*%
X259806000Y-256116000D03*
D11*
X264886000Y-256116000D03*
D10*
X269966000Y-256116000D03*
D12*
X261076000Y-253576000D03*
X267426000Y-251036000D03*
%TD*%
D10*
%TO.C,SW45*%
X73746000Y-294586000D03*
D11*
X78826000Y-294586000D03*
D10*
X83906000Y-294586000D03*
D12*
X75016000Y-292046000D03*
X81366000Y-289506000D03*
%TD*%
D10*
%TO.C,SW60*%
X101176000Y-313996000D03*
D11*
X106256000Y-313996000D03*
D10*
X111336000Y-313996000D03*
D12*
X102446000Y-311456000D03*
X108796000Y-308916000D03*
%TD*%
D10*
%TO.C,SW33*%
X163706000Y-275356000D03*
D11*
X168786000Y-275356000D03*
D10*
X173866000Y-275356000D03*
D12*
X164976000Y-272816000D03*
X171326000Y-270276000D03*
%TD*%
D10*
%TO.C,idk\u005C1*%
X264596000Y-275396000D03*
D11*
X269676000Y-275396000D03*
D10*
X274756000Y-275396000D03*
D12*
X265866000Y-272856000D03*
X272216000Y-270316000D03*
%TD*%
D10*
%TO.C,SW71*%
X39046000Y-236826000D03*
D11*
X44126000Y-236826000D03*
D10*
X49206000Y-236826000D03*
D12*
X40316000Y-234286000D03*
X46666000Y-231746000D03*
%TD*%
D10*
%TO.C,SW7*%
X115856000Y-256076000D03*
D11*
X120936000Y-256076000D03*
D10*
X126016000Y-256076000D03*
D12*
X117126000Y-253536000D03*
X123476000Y-250996000D03*
%TD*%
D10*
%TO.C,SW38*%
X67826000Y-275316000D03*
D11*
X72906000Y-275316000D03*
D10*
X77986000Y-275316000D03*
D12*
X69096000Y-272776000D03*
X75446000Y-270236000D03*
%TD*%
D10*
%TO.C,SW36*%
X106226000Y-275326000D03*
D11*
X111306000Y-275326000D03*
D10*
X116386000Y-275326000D03*
D12*
X107496000Y-272786000D03*
X113846000Y-270246000D03*
%TD*%
D10*
%TO.C,tab1*%
X5356000Y-275306000D03*
D11*
X10436000Y-275306000D03*
D10*
X15516000Y-275306000D03*
D12*
X6626000Y-272766000D03*
X12976000Y-270226000D03*
%TD*%
D10*
%TO.C,SW73*%
X77476000Y-236876000D03*
D11*
X82556000Y-236876000D03*
D10*
X87636000Y-236876000D03*
D12*
X78746000Y-234336000D03*
X85096000Y-231796000D03*
%TD*%
D10*
%TO.C,SW9*%
X154256000Y-256116000D03*
D11*
X159336000Y-256116000D03*
D10*
X164416000Y-256116000D03*
D12*
X155526000Y-253576000D03*
X161876000Y-251036000D03*
%TD*%
D10*
%TO.C,SW50*%
X171716000Y-294626000D03*
D11*
X176796000Y-294626000D03*
D10*
X181876000Y-294626000D03*
D12*
X172986000Y-292086000D03*
X179336000Y-289546000D03*
%TD*%
D10*
%TO.C,SW1*%
X606000Y-256056000D03*
D11*
X5686000Y-256056000D03*
D10*
X10766000Y-256056000D03*
D12*
X1876000Y-253516000D03*
X8226000Y-250976000D03*
%TD*%
D10*
%TO.C,SW79*%
X173476000Y-236826000D03*
D11*
X178556000Y-236826000D03*
D10*
X183636000Y-236826000D03*
D12*
X174746000Y-234286000D03*
X181096000Y-231746000D03*
%TD*%
D10*
%TO.C,SW17*%
X288631000Y-294691000D03*
D11*
X293711000Y-294691000D03*
D10*
X298791000Y-294691000D03*
D12*
X289901000Y-292151000D03*
X296251000Y-289611000D03*
%TD*%
D10*
%TO.C,SW10*%
X173456000Y-256116000D03*
D11*
X178536000Y-256116000D03*
D10*
X183616000Y-256116000D03*
D12*
X174726000Y-253576000D03*
X181076000Y-251036000D03*
%TD*%
D10*
%TO.C,SW44*%
X54196000Y-294526000D03*
D11*
X59276000Y-294526000D03*
D10*
X64356000Y-294526000D03*
D12*
X55466000Y-291986000D03*
X61816000Y-289446000D03*
%TD*%
D10*
%TO.C,SW82*%
X231076000Y-236876000D03*
D11*
X236156000Y-236876000D03*
D10*
X241236000Y-236876000D03*
D12*
X232346000Y-234336000D03*
X238696000Y-231796000D03*
%TD*%
D10*
%TO.C,SW84*%
X269476000Y-236926000D03*
D11*
X274556000Y-236926000D03*
D10*
X279636000Y-236926000D03*
D12*
X270746000Y-234386000D03*
X277096000Y-231846000D03*
%TD*%
D10*
%TO.C,SW20*%
X269461000Y-333291000D03*
D11*
X274541000Y-333291000D03*
D10*
X279621000Y-333291000D03*
D12*
X270731000Y-330751000D03*
X277081000Y-328211000D03*
%TD*%
D10*
%TO.C,SW4*%
X58246000Y-256076000D03*
D11*
X63326000Y-256076000D03*
D10*
X68406000Y-256076000D03*
D12*
X59516000Y-253536000D03*
X65866000Y-250996000D03*
%TD*%
D10*
%TO.C,SW54*%
X216616000Y-314066000D03*
D11*
X221696000Y-314066000D03*
D10*
X226776000Y-314066000D03*
D12*
X217886000Y-311526000D03*
X224236000Y-308986000D03*
%TD*%
D10*
%TO.C,SW3*%
X39046000Y-256076000D03*
D11*
X44126000Y-256076000D03*
D10*
X49206000Y-256076000D03*
D12*
X40316000Y-253536000D03*
X46666000Y-250996000D03*
%TD*%
D10*
%TO.C,SW83*%
X250276000Y-236916000D03*
D11*
X255356000Y-236916000D03*
D10*
X260436000Y-236916000D03*
D12*
X251546000Y-234376000D03*
X257896000Y-231836000D03*
%TD*%
D10*
%TO.C,SW29*%
X240536000Y-275366000D03*
D11*
X245616000Y-275366000D03*
D10*
X250696000Y-275366000D03*
D12*
X241806000Y-272826000D03*
X248156000Y-270286000D03*
%TD*%
D10*
%TO.C,SW21*%
X269456000Y-314086000D03*
D11*
X274536000Y-314086000D03*
D10*
X279616000Y-314086000D03*
D12*
X270726000Y-311546000D03*
X277076000Y-309006000D03*
%TD*%
D10*
%TO.C,esc1*%
X616000Y-236826000D03*
D11*
X5696000Y-236826000D03*
D10*
X10776000Y-236826000D03*
D12*
X1886000Y-234286000D03*
X8236000Y-231746000D03*
%TD*%
D10*
%TO.C,SW51*%
X191206000Y-294606000D03*
D11*
X196286000Y-294606000D03*
D10*
X201366000Y-294606000D03*
D12*
X192476000Y-292066000D03*
X198826000Y-289526000D03*
%TD*%
D13*
%TO.C,Shift-l-stabilizer1*%
X5426000Y-306376000D03*
D14*
X5426000Y-321586000D03*
D13*
X29302000Y-306376000D03*
D14*
X29302000Y-321586000D03*
%TD*%
D10*
%TO.C,SW57*%
X158906000Y-314036000D03*
D11*
X163986000Y-314036000D03*
D10*
X169066000Y-314036000D03*
D12*
X160176000Y-311496000D03*
X166526000Y-308956000D03*
%TD*%
D10*
%TO.C,SW76*%
X115876000Y-236826000D03*
D11*
X120956000Y-236826000D03*
D10*
X126036000Y-236826000D03*
D12*
X117146000Y-234286000D03*
X123496000Y-231746000D03*
%TD*%
D10*
%TO.C,SW8*%
X135056000Y-256116000D03*
D11*
X140136000Y-256116000D03*
D10*
X145216000Y-256116000D03*
D12*
X136326000Y-253576000D03*
X142676000Y-251036000D03*
%TD*%
D10*
%TO.C,SW49*%
X152186000Y-294596000D03*
D11*
X157266000Y-294596000D03*
D10*
X162346000Y-294596000D03*
D12*
X153456000Y-292056000D03*
X159806000Y-289516000D03*
%TD*%
D10*
%TO.C,SW18*%
X288641000Y-314091000D03*
D11*
X293721000Y-314091000D03*
D10*
X298801000Y-314091000D03*
D12*
X289911000Y-311551000D03*
X296261000Y-309011000D03*
%TD*%
D10*
%TO.C,SW53*%
X230526000Y-294606000D03*
D11*
X235606000Y-294606000D03*
D10*
X240686000Y-294606000D03*
D12*
X231796000Y-292066000D03*
X238146000Y-289526000D03*
%TD*%
D10*
%TO.C,SW26*%
X192246000Y-333351000D03*
D11*
X197326000Y-333351000D03*
D10*
X202406000Y-333351000D03*
D12*
X193516000Y-330811000D03*
X199866000Y-328271000D03*
%TD*%
D10*
%TO.C,SW37*%
X87026000Y-275316000D03*
D11*
X92106000Y-275316000D03*
D10*
X97186000Y-275316000D03*
D12*
X88296000Y-272776000D03*
X94646000Y-270236000D03*
%TD*%
D10*
%TO.C,SW2*%
X19801000Y-256064000D03*
D11*
X24881000Y-256064000D03*
D10*
X29961000Y-256064000D03*
D12*
X21071000Y-253524000D03*
X27421000Y-250984000D03*
%TD*%
D10*
%TO.C,space1*%
X122876000Y-333351000D03*
D11*
X127956000Y-333351000D03*
D10*
X133036000Y-333351000D03*
D12*
X124146000Y-330811000D03*
X130496000Y-328271000D03*
%TD*%
D10*
%TO.C,SW11*%
X192656000Y-256116000D03*
D11*
X197736000Y-256116000D03*
D10*
X202816000Y-256116000D03*
D12*
X193926000Y-253576000D03*
X200276000Y-251036000D03*
%TD*%
D13*
%TO.C,Enter-Stabilizer1*%
X252750000Y-287026000D03*
D14*
X252750000Y-302236000D03*
D13*
X276626000Y-287026000D03*
D14*
X276626000Y-302236000D03*
%TD*%
D10*
%TO.C,SW80*%
X192676000Y-236876000D03*
D11*
X197756000Y-236876000D03*
D10*
X202836000Y-236876000D03*
D12*
X193946000Y-234336000D03*
X200296000Y-231796000D03*
%TD*%
D10*
%TO.C,capslock1*%
X7706000Y-294566000D03*
D11*
X12786000Y-294566000D03*
D10*
X17866000Y-294566000D03*
D12*
X8976000Y-292026000D03*
X15326000Y-289486000D03*
%TD*%
D10*
%TO.C,SW16*%
X288626000Y-275416000D03*
D11*
X293706000Y-275416000D03*
D10*
X298786000Y-275416000D03*
D12*
X289896000Y-272876000D03*
X296246000Y-270336000D03*
%TD*%
D10*
%TO.C,SW6*%
X96656000Y-256066000D03*
D11*
X101736000Y-256066000D03*
D10*
X106816000Y-256066000D03*
D12*
X97926000Y-253526000D03*
X104276000Y-250986000D03*
%TD*%
D10*
%TO.C,SW22*%
X250186000Y-333336000D03*
D11*
X255266000Y-333336000D03*
D10*
X260346000Y-333336000D03*
D12*
X251456000Y-330796000D03*
X257806000Y-328256000D03*
%TD*%
D10*
%TO.C,shift-l1*%
X243036000Y-314066000D03*
D11*
X248116000Y-314066000D03*
D10*
X253196000Y-314066000D03*
D12*
X244306000Y-311526000D03*
X250656000Y-308986000D03*
%TD*%
D13*
%TO.C,backspace-stabilizer1*%
X252950000Y-248476000D03*
D14*
X252950000Y-263686000D03*
D13*
X276826000Y-248476000D03*
D14*
X276826000Y-263686000D03*
%TD*%
M02*
